<?xml version="1.0" encoding="UTF-8"?>
<svg xmlns="http://www.w3.org/2000/svg" version="1.1" viewBox="0 0 56.6 56.6">
  <defs>
    <style>
      .cls-1 {
        fill: #da622a;
      }
    </style>
  </defs>
  <!-- Generator: Adobe Illustrator 28.7.10, SVG Export Plug-In . SVG Version: 1.2.0 Build 236)  -->
  <g>
    <g id="Layer_1">
      <path class="cls-1" d="M48.2,28.3c0-8-2.7-16.6-7.4-23.5h8.9c4.2,6.9,6.9,15.4,6.9,23.5s-2.7,16.6-6.9,23.5h-8.9c4.7-6.9,7.4-15.4,7.4-23.5Z"/>
      <path d="M13.5,37l7.5-2.8c.6,2.1,3.2,3.3,6.4,3.3s4.8-.8,4.8-2.3-.8-1.5-3.8-2.1l-4.9-.9c-5.4-.9-8.9-3.6-8.9-7.9s6.1-8.9,12.7-8.9,10.3,1.7,12.5,6.3l-7.5,2.8c-.8-1.9-2.5-2.9-5.1-2.9s-4.2,1-4.2,2.2.7,1.5,3.1,1.9l5.1.9c6.8,1.2,9.4,3.3,9.4,7.9s-5.9,9.2-13.2,9.2-11.8-2.5-13.8-6.8h-.1Z"/>
      <path class="cls-1" d="M0,28.4C0,20.4,2.7,11.8,6.9,4.9h8.9c-4.7,6.9-7.4,15.4-7.4,23.5s2.7,16.6,7.4,23.5H6.9C2.7,44.9,0,36.4,0,28.4Z"/>
    </g>
  </g>
</svg>