<?xml version="1.0" encoding="UTF-8"?>
<svg xmlns="http://www.w3.org/2000/svg" version="1.1" viewBox="0 0 477 153">
  <defs>
    <style>
      .cls-1 {
        fill: #bfc0c0;
      }
    </style>
  </defs>
  <!-- Generator: Adobe Illustrator 28.7.10, SVG Export Plug-In . SVG Version: 1.2.0 Build 236)  -->
  <g>
    <g id="Layer_1">
      <path d="M434.5,116.4h7.9l1,3.5c1.1-1.8,4.2-4.3,8.3-4.3,6.5,0,9.1,3.7,9.1,10.5v17.1h-8.9v-15.3c0-3.8-1.2-5.6-3.9-5.6s-4.7,2.5-4.7,7.2v13.6h-8.9v-26.8Z"/>
      <path d="M403.2,129.7c0-9.7,6.9-14,14.4-14s14.4,4.4,14.4,14-6.9,14.2-14.4,14.2-14.4-4.5-14.4-14.2ZM423.1,129.7c0-4.9-2.3-7.3-5.4-7.3s-5.4,2.4-5.4,7.3,2.2,7.5,5.4,7.5,5.4-2.5,5.4-7.5Z"/>
      <path d="M374.3,137.1l7.5-2.8c.6,2.1,3.2,3.3,6.4,3.3s4.8-.8,4.8-2.3-.8-1.5-3.8-2.1l-4.9-.9c-5.4-.9-8.9-3.6-8.9-7.9s6.1-8.9,12.7-8.9,10.3,1.7,12.5,6.3l-7.5,2.8c-.8-1.9-2.5-2.9-5.1-2.9s-4.2,1-4.2,2.2.7,1.5,3.1,1.9l5.1.9c6.8,1.2,9.4,3.3,9.4,7.9s-5.9,9.2-13.2,9.2-11.8-2.5-13.8-6.8Z"/>
      <path d="M344.4,137.1l7.5-2.8c.6,2.1,3.2,3.3,6.4,3.3s4.8-.8,4.8-2.3-.8-1.5-3.8-2.1l-4.9-.9c-5.4-.9-8.9-3.6-8.9-7.9s6.1-8.9,12.7-8.9,10.3,1.7,12.5,6.3l-7.5,2.8c-.8-1.9-2.5-2.9-5.1-2.9s-4.2,1-4.2,2.2.7,1.5,3.1,1.9l5.1.9c6.8,1.2,9.4,3.3,9.4,7.9s-5.9,9.2-13.2,9.2-11.8-2.5-13.8-6.8Z"/>
      <path d="M316.4,136.6h8.7v-13.5h-7.3v-6.6h16.2v20.1h8.7v6.6h-26.4v-6.6ZM323.9,107c0-2.9,2.3-5.1,5.1-5.1s5.1,2.2,5.1,5.1-2.3,5.1-5.1,5.1-5.1-2.3-5.1-5.1Z"/>
      <path d="M291.1,135.4v-23.8h-6.2v-6.6h15.1v27.8c0,3,.5,3.5,3.5,3.5h9.2v6.9h-12.3c-6.9,0-9.2-1.2-9.2-7.8Z"/>
      <path d="M253.2,125.1c0-11.4,6.4-18.6,15.6-18.6s10.6,2.7,12.6,8.2l-7.1,2.6c-.8-1.8-2.4-3.5-5.3-3.5s-7.2,3.6-7.2,11.3,2.9,11.6,7.6,11.6,5.6-1.6,5.6-6.2v-1.1h-6.4v-6.8h14v20.7h-5.1l-1.1-3.8c-1.8,3-5.1,4.5-8.9,4.5-8.7,0-14.3-7.2-14.3-18.8Z"/>
      <path d="M141.8,135.4v-23.8h-6.2v-6.6h15.1v27.8c0,3,.5,3.5,3.5,3.5h9.2v6.9h-12.3c-6.9,0-9.2-1.2-9.2-7.8Z"/>
      <path d="M105,129.6c0-8.5,6.6-14,14.6-14s14.7,6.6,13.9,16.5h-19.9c.8,3.3,3.2,5,6.4,5s3.9-.7,4.9-1.9l7,2.6c-2.6,3.9-7.1,6.1-11.9,6.1-8.7,0-15-5.2-15-14.3ZM119.9,122.1c-3,0-5.6,1.4-6.3,4.9h11.9c-.3-3.3-2.7-4.9-5.6-4.9Z"/>
      <path d="M72.8,116.4h7.1l3.1,17.9h.2l2.5-17.9h7.1l2.5,17.9h.2l3.1-17.9h7l-5.4,26.8h-8l-2.9-17.6h-.2l-2.8,17.6h-8l-5.4-26.8Z"/>
      <path d="M45.3,129.6c0-8.5,6.6-14,14.6-14s14.7,6.6,13.9,16.5h-19.9c.8,3.3,3.2,5,6.4,5s3.9-.7,4.9-1.9l7,2.6c-2.6,3.9-7.1,6.1-11.9,6.1-8.7,0-15-5.2-15-14.3ZM60.1,122.1c-3,0-5.6,1.4-6.3,4.9h11.9c-.3-3.3-2.7-4.9-5.6-4.9Z"/>
      <path d="M13.2,133.9l8.4-3.2c.9,3.5,2.6,5.9,6.3,5.9s6-2.1,6-7.7v-21.9h9.1v21.9c0,9.2-5,14.9-15.2,14.9s-12.9-4.1-14.6-9.9Z"/>
      <path d="M434.5,68.4h7.9l1,3.5c1.1-1.8,4.2-4.3,8.3-4.3,6.5,0,9.1,3.7,9.1,10.5v17.1h-8.9v-15.3c0-3.8-1.2-5.6-3.9-5.6s-4.7,2.5-4.7,7.2v13.6h-8.9v-26.8Z"/>
      <path d="M403.2,81.7c0-9.7,6.9-14,14.4-14s14.4,4.4,14.4,14-6.9,14.2-14.4,14.2-14.4-4.5-14.4-14.2ZM423.1,81.7c0-4.9-2.3-7.3-5.4-7.3s-5.4,2.4-5.4,7.3,2.2,7.5,5.4,7.5,5.4-2.5,5.4-7.5Z"/>
      <path d="M374.3,89.1l7.5-2.8c.6,2.1,3.2,3.3,6.4,3.3s4.8-.8,4.8-2.3-.8-1.5-3.8-2.1l-4.9-.9c-5.4-.9-8.9-3.6-8.9-7.9s6.1-8.9,12.7-8.9,10.3,1.7,12.5,6.3l-7.5,2.8c-.8-1.9-2.5-2.9-5.1-2.9s-4.2,1-4.2,2.2.7,1.5,3.1,1.9l5.1.9c6.8,1.2,9.4,3.3,9.4,7.9s-5.9,9.2-13.2,9.2-11.8-2.5-13.8-6.8Z"/>
      <path d="M344.4,89.1l7.5-2.8c.6,2.1,3.2,3.3,6.4,3.3s4.8-.8,4.8-2.3-.8-1.5-3.8-2.1l-4.9-.9c-5.4-.9-8.9-3.6-8.9-7.9s6.1-8.9,12.7-8.9,10.3,1.7,12.5,6.3l-7.5,2.8c-.8-1.9-2.5-2.9-5.1-2.9s-4.2,1-4.2,2.2.7,1.5,3.1,1.9l5.1.9c6.8,1.2,9.4,3.3,9.4,7.9s-5.9,9.2-13.2,9.2-11.8-2.5-13.8-6.8Z"/>
      <path d="M316.4,88.6h8.7v-13.5h-7.3v-6.6h16.2v20.1h8.7v6.6h-26.4v-6.6ZM323.9,59c0-2.9,2.3-5.1,5.1-5.1s5.1,2.2,5.1,5.1-2.3,5.1-5.1,5.1-5.1-2.3-5.1-5.1Z"/>
      <path d="M291.1,87.4v-23.8h-6.2v-6.6h15.1v27.8c0,3,.5,3.5,3.5,3.5h9.2v6.9h-12.3c-6.9,0-9.2-1.2-9.2-7.8Z"/>
      <path d="M253.2,77.1c0-11.4,6.4-18.6,15.6-18.6s10.6,2.7,12.6,8.2l-7.1,2.6c-.8-1.8-2.4-3.5-5.3-3.5s-7.2,3.6-7.2,11.3,2.9,11.6,7.6,11.6,5.6-1.6,5.6-6.2v-1.1h-6.4v-6.8h14v20.7h-5.1l-1.1-3.8c-1.8,3-5.1,4.5-8.9,4.5-8.7,0-14.3-7.2-14.3-18.8Z"/>
      <path d="M180.2,89.1l7.5-2.8c.6,2.1,3.2,3.3,6.4,3.3s4.8-.8,4.8-2.3-.8-1.5-3.8-2.1l-4.9-.9c-5.4-.9-8.9-3.6-8.9-7.9s6.1-8.9,12.7-8.9,10.3,1.7,12.5,6.3l-7.5,2.8c-.8-1.9-2.5-2.9-5.1-2.9s-4.2,1-4.2,2.2.7,1.5,3.1,1.9l5.1.9c6.8,1.2,9.4,3.3,9.4,7.9s-5.9,9.2-13.2,9.2-11.8-2.5-13.8-6.8Z"/>
      <path d="M141.8,87.4v-23.8h-6.2v-6.6h15.1v27.8c0,3,.5,3.5,3.5,3.5h9.2v6.9h-12.3c-6.9,0-9.2-1.2-9.2-7.8Z"/>
      <path d="M105,81.6c0-8.5,6.6-14,14.6-14s14.7,6.6,13.9,16.5h-19.9c.8,3.3,3.2,5,6.4,5s3.9-.7,4.9-1.9l7,2.6c-2.6,3.9-7.1,6.1-11.9,6.1-8.7,0-15-5.2-15-14.3ZM119.9,74.1c-3,0-5.6,1.4-6.3,4.9h11.9c-.3-3.3-2.7-4.9-5.6-4.9Z"/>
      <path d="M72.8,68.4h7.1l3.1,17.9h.2l2.5-17.9h7.1l2.5,17.9h.2l3.1-17.9h7l-5.4,26.8h-8l-2.9-17.6h-.2l-2.8,17.6h-8l-5.4-26.8Z"/>
      <path d="M45.3,81.6c0-8.5,6.6-14,14.6-14s14.7,6.6,13.9,16.5h-19.9c.8,3.3,3.2,5,6.4,5s3.9-.7,4.9-1.9l7,2.6c-2.6,3.9-7.1,6.1-11.9,6.1-8.7,0-15-5.2-15-14.3ZM60.1,74.1c-3,0-5.6,1.4-6.3,4.9h11.9c-.3-3.3-2.7-4.9-5.6-4.9Z"/>
      <path d="M13.2,85.9l8.4-3.2c.9,3.5,2.6,5.9,6.3,5.9s6-2.1,6-7.7v-21.9h9.1v21.9c0,9.2-5,14.9-15.2,14.9s-12.9-4.1-14.6-9.9Z"/>
      <path d="M434.5,20.4h7.9l1,3.5c1.1-1.8,4.2-4.3,8.3-4.3,6.5,0,9.1,3.7,9.1,10.5v17.1h-8.9v-15.3c0-3.8-1.2-5.6-3.9-5.6s-4.7,2.5-4.7,7.2v13.6h-8.9v-26.8Z"/>
      <path d="M403.2,33.7c0-9.7,6.9-14,14.4-14s14.4,4.4,14.4,14-6.9,14.2-14.4,14.2-14.4-4.5-14.4-14.2ZM423.1,33.7c0-4.9-2.3-7.3-5.4-7.3s-5.4,2.4-5.4,7.3,2.2,7.5,5.4,7.5,5.4-2.5,5.4-7.5Z"/>
      <path d="M374.3,41.1l7.5-2.8c.6,2.1,3.2,3.3,6.4,3.3s4.8-.8,4.8-2.3-.8-1.5-3.8-2.1l-4.9-.9c-5.4-.9-8.9-3.6-8.9-7.9s6.1-8.9,12.7-8.9,10.3,1.7,12.5,6.3l-7.5,2.8c-.8-1.9-2.5-2.9-5.1-2.9s-4.2,1-4.2,2.2.7,1.5,3.1,1.9l5.1.9c6.8,1.2,9.4,3.3,9.4,7.9s-5.9,9.2-13.2,9.2-11.8-2.5-13.8-6.8Z"/>
      <path d="M344.4,41.1l7.5-2.8c.6,2.1,3.2,3.3,6.4,3.3s4.8-.8,4.8-2.3-.8-1.5-3.8-2.1l-4.9-.9c-5.4-.9-8.9-3.6-8.9-7.9s6.1-8.9,12.7-8.9,10.3,1.7,12.5,6.3l-7.5,2.8c-.8-1.9-2.5-2.9-5.1-2.9s-4.2,1-4.2,2.2.7,1.5,3.1,1.9l5.1.9c6.8,1.2,9.4,3.3,9.4,7.9s-5.9,9.2-13.2,9.2-11.8-2.5-13.8-6.8Z"/>
      <path d="M316.4,40.6h8.7v-13.5h-7.3v-6.6h16.2v20.1h8.7v6.6h-26.4v-6.6ZM323.9,11c0-2.9,2.3-5.1,5.1-5.1s5.1,2.2,5.1,5.1-2.3,5.1-5.1,5.1-5.1-2.3-5.1-5.1Z"/>
      <path d="M291.1,39.4V15.6h-6.2v-6.6h15.1v27.8c0,3,.5,3.5,3.5,3.5h9.2v6.9h-12.3c-6.9,0-9.2-1.2-9.2-7.8Z"/>
      <path d="M253.2,29.1c0-11.4,6.4-18.6,15.6-18.6s10.6,2.7,12.6,8.2l-7.1,2.6c-.8-1.8-2.4-3.5-5.3-3.5s-7.2,3.6-7.2,11.3,2.9,11.6,7.6,11.6,5.6-1.6,5.6-6.2v-1.1h-6.4v-6.8h14v20.7h-5.1l-1.1-3.8c-1.8,3-5.1,4.5-8.9,4.5-8.7,0-14.3-7.2-14.3-18.8Z"/>
      <path class="cls-1" d="M214.9,32.4c0-8-2.7-16.6-7.4-23.5h8.9c4.2,6.9,6.9,15.4,6.9,23.5s-2.7,16.6-6.9,23.5h-8.9c4.7-6.9,7.4-15.4,7.4-23.5Z"/>
      <path d="M180.2,41.1l7.5-2.8c.6,2.1,3.2,3.3,6.4,3.3s4.8-.8,4.8-2.3-.8-1.5-3.8-2.1l-4.9-.9c-5.4-.9-8.9-3.6-8.9-7.9s6.1-8.9,12.7-8.9,10.3,1.7,12.5,6.3l-7.5,2.8c-.8-1.9-2.5-2.9-5.1-2.9s-4.2,1-4.2,2.2.7,1.5,3.1,1.9l5.1.9c6.8,1.2,9.4,3.3,9.4,7.9s-5.9,9.2-13.2,9.2-11.8-2.5-13.8-6.8Z"/>
      <path class="cls-1" d="M166.7,32.5c0-8,2.7-16.6,6.9-23.5h8.9c-4.7,6.9-7.4,15.4-7.4,23.5s2.7,16.6,7.4,23.5h-8.9c-4.2-6.9-6.9-15.4-6.9-23.5Z"/>
      <path d="M141.8,39.4V15.6h-6.2v-6.6h15.1v27.8c0,3,.5,3.5,3.5,3.5h9.2v6.9h-12.3c-6.9,0-9.2-1.2-9.2-7.8Z"/>
      <path d="M105,33.6c0-8.5,6.6-14,14.6-14s14.7,6.6,13.9,16.5h-19.9c.8,3.3,3.2,5,6.4,5s3.9-.7,4.9-1.9l7,2.6c-2.6,3.9-7.1,6.1-11.9,6.1-8.7,0-15-5.2-15-14.3ZM119.9,26.1c-3,0-5.6,1.4-6.3,4.9h11.9c-.3-3.3-2.7-4.9-5.6-4.9Z"/>
      <path d="M72.8,20.4h7.1l3.1,17.9h.2l2.5-17.9h7.1l2.5,17.9h.2l3.1-17.9h7l-5.4,26.8h-8l-2.9-17.6h-.2l-2.8,17.6h-8l-5.4-26.8Z"/>
      <path d="M45.3,33.6c0-8.5,6.6-14,14.6-14s14.7,6.6,13.9,16.5h-19.9c.8,3.3,3.2,5,6.4,5s3.9-.7,4.9-1.9l7,2.6c-2.6,3.9-7.1,6.1-11.9,6.1-8.7,0-15-5.2-15-14.3ZM60.1,26.1c-3,0-5.6,1.4-6.3,4.9h11.9c-.3-3.3-2.7-4.9-5.6-4.9Z"/>
      <path d="M13.2,37.9l8.4-3.2c.9,3.5,2.6,5.9,6.3,5.9s6-2.1,6-7.7V11.2h9.1v21.9c0,9.2-5,14.9-15.2,14.9s-12.9-4.1-14.6-9.9Z"/>
    </g>
  </g>
</svg>