<?xml version="1.0" encoding="UTF-8"?>
<svg xmlns="http://www.w3.org/2000/svg" version="1.1" viewBox="0 0 117 63">
  <!-- Generator: Adobe Illustrator 28.7.10, SVG Export Plug-In . SVG Version: 1.2.0 Build 236)  -->
  <g>
    <g id="Layer_1">
      <path d="M73.2,32.5c0-11.4,6.4-18.6,15.6-18.6s10.6,2.7,12.6,8.2l-7.1,2.6c-.8-1.8-2.4-3.5-5.3-3.5s-7.2,3.6-7.2,11.3,2.9,11.6,7.6,11.6,5.6-1.6,5.6-6.2v-1.1h-6.4v-6.8h14v20.7h-5.1l-1.1-3.8c-1.8,3-5.1,4.5-8.9,4.5-8.7,0-14.3-7.2-14.3-18.8Z"/>
      <path d="M43.4,32.5c0-11.4,6.4-18.6,15.6-18.6s10.6,2.7,12.6,8.2l-7.1,2.6c-.8-1.8-2.4-3.5-5.3-3.5s-7.2,3.6-7.2,11.3,2.9,11.6,7.6,11.6,5.6-1.6,5.6-6.2v-1.1h-6.4v-6.8h14v20.7h-5.1l-1.1-3.8c-1.8,3-5.1,4.5-8.9,4.5-8.7,0-14.3-7.2-14.3-18.8Z"/>
      <path d="M12.4,41.3l8.4-3.2c.9,3.5,2.6,5.9,6.3,5.9s6-2.1,6-7.7V14.5h9.1v21.9c0,9.2-5,14.9-15.2,14.9s-12.9-4.1-14.6-9.9Z"/>
    </g>
  </g>
</svg>