<?xml version="1.0" encoding="UTF-8"?>
<svg xmlns="http://www.w3.org/2000/svg" version="1.1" viewBox="0 0 612 612">
  <!-- Generator: Adobe Illustrator 28.7.3, SVG Export Plug-In . SVG Version: 1.2.0 Build 164)  -->
  <g>
    <g id="Layer_1">
      <path d="M530.2,521.05c.08-1.15.08-2.36.08-3.57v-4.13c30.85-33.2,52.22-85.09,52.22-136.99s-21.36-103.79-52.22-136.99v-4.13c.43-37.34-15.05-76.94-40.67-104.1l8.91-8.91c1.15-1.13,1.83-2.78,1.83-4.41,0-1.63-.68-3.26-1.83-4.41-1.15-1.15-2.78-1.83-4.41-1.83-1.63,0-3.28.67-4.41,1.83l-8.91,8.91c-28.06-26.53-69.59-42.12-108.17-40.61-33.63-31.36-86.84-52.95-139.76-52.25-52.92.7-105.55,23.68-138.34,55.92l-8.89-8.89c-1.13-1.15-2.78-1.83-4.41-1.83-1.63,0-3.26.68-4.41,1.83s-1.83,2.78-1.83,4.41c0,1.63.67,3.28,1.83,4.41l8.89,8.89c-32.23,32.79-55.22,85.42-55.92,138.34-.7,52.92,20.89,106.13,52.25,139.76-1.51,38.58,14.08,80.12,40.61,108.17l-8.91,8.91c-1.15,1.13-1.83,2.78-1.83,4.41,0,1.63.68,3.26,1.83,4.41s2.78,1.83,4.41,1.83c1.63,0,3.28-.67,4.41-1.83l8.91-8.91c27.16,25.62,66.77,41.09,104.1,40.67h4.13c33.2,30.85,85.09,52.22,136.99,52.22s103.79-21.36,136.99-52.22h4.13c1.21,0,2.43,0,3.57-.08l10.89,10.89c1.13,1.15,2.78,1.83,4.41,1.83,1.63,0,3.26-.68,4.41-1.83,1.15-1.15,1.83-2.78,1.83-4.41,0-1.63-.67-3.28-1.83-4.41l-10.89-10.89ZM530.28,258.95c24.09,30.61,39.74,74.01,39.74,117.42s-15.65,86.81-39.74,117.42v-234.84ZM503.63,214.37c-18.85-14.8-40.66-26.41-63.46-33.78l31.79-31.79c16.42,17.9,27.85,41.58,31.67,65.57ZM463.14,139.98l-31.79,31.79c-7.36-22.81-18.97-44.62-33.78-63.46,23.99,3.82,47.67,15.25,65.57,31.67ZM385.39,235.38l39.48-39.48c8.4,39.03,3.59,82.65-13.09,118.93,2.79-27.85-7.49-58.8-26.39-79.45ZM356.17,224.49c.3,1.61,1.27,3.09,2.62,3.99,3.11,2.12,6.11,4.43,8.94,6.91l-61.59,61.59-58.14-58.14c.07-1.16.05-2.38.05-3.6,0-1.08.01-2.16.04-3.24,42.64-39.72,111.17-58.06,167.95-44.93l-39.48,39.48c-3.4-3.02-7-5.83-10.76-8.39-1.33-.92-3.07-1.28-4.67-.97s-3.08,1.27-3.99,2.62c-.92,1.34-1.28,3.07-.97,4.67ZM297.32,305.81l-61.59,61.59c-2.48-2.84-4.79-5.83-6.91-8.94-1.63-2.79-5.99-3.46-8.66-1.65-2.67,1.82-3.65,6.13-1.65,8.66,2.56,3.76,5.37,7.36,8.39,10.76l-39.48,39.48c-13.13-56.78,5.21-125.31,44.93-167.95,1.08-.03,2.16-.04,3.24-.04,1.22,0,2.44.01,3.6-.05l58.14,58.14ZM235.71,385.06c20.65,18.9,51.6,29.18,79.45,26.39-36.27,16.68-79.89,21.49-118.93,13.09l39.48-39.48ZM306.14,399.36c-23.26,0-46.51-9.42-61.59-23.14l61.59-61.59,61.59,61.59c-15.08,13.72-38.33,23.14-61.59,23.14ZM314.96,305.81l61.59-61.59c13.72,15.08,23.14,38.33,23.14,61.59s-9.42,46.51-23.14,61.59l-61.59-61.59ZM379.94,106.65c17.53,19.6,31.21,43.36,39.35,68.37-56.77-13.1-124.34,2.59-169.53,39.35,4.01-27.68,20.36-57.91,44.92-78.23,24.56-20.32,57.32-30.74,85.25-29.49ZM227.13,42.1c47.36-2.07,95.55,14.74,127.86,41.1-30.55,3.93-63.4,19.68-87.51,44.06-24.11,24.38-39.48,57.41-43.07,88l-121.06-121.06c29.88-29.08,76.42-50.03,123.78-52.1ZM42.43,226.8c2.07-47.36,23.02-93.9,52.1-123.78l121.06,121.06c-30.6,3.59-63.62,18.96-88,43.07s-40.13,56.96-44.06,87.51c-26.36-32.31-43.17-80.49-41.1-127.86ZM136.47,294.35c20.32-24.56,50.56-40.92,78.23-44.92-36.77,45.19-52.45,112.76-39.35,169.53-25.01-8.15-48.77-21.82-68.37-39.35-1.24-27.94,9.17-60.7,29.49-85.25ZM108.64,397.25c18.85,14.8,40.66,26.41,63.46,33.78l-31.79,31.79c-16.42-17.9-27.85-41.58-31.67-65.57ZM149.13,471.63l31.79-31.79c7.36,22.81,18.97,44.62,33.78,63.46-23.99-3.82-47.67-15.25-65.57-31.67ZM376.7,569.7c-43.41,0-86.81-15.65-117.42-39.74h234.84c-30.61,24.09-74.01,39.74-117.42,39.74ZM235.58,505.01c-1.08,0-2.16-.01-3.24-.04-17.53-19.6-31.21-43.36-39.35-68.37,62.25,14.77,138.14-6.5,183.64-51.48l119.89,119.89H235.58ZM505.34,496.19l-119.89-119.89c44.98-45.5,66.25-121.39,51.48-183.64,25.01,8.15,48.77,21.82,68.37,39.35.03,1.08.04,2.16.04,3.24v260.94Z"/>
    </g>
  </g>
</svg>